<mxfile host="Electron" agent="Mozilla/5.0 (Windows NT 10.0; Win64; x64) AppleWebKit/537.36 (KHTML, like Gecko) draw.io/25.0.1 Chrome/128.0.6613.186 Electron/32.2.6 Safari/537.36" version="25.0.1">
  <diagram name="Página-1" id="FFMdGfwOoUpfTf8sLjiL">
    <mxGraphModel dx="875" dy="518" grid="1" gridSize="10" guides="1" tooltips="1" connect="1" arrows="1" fold="1" page="1" pageScale="1" pageWidth="827" pageHeight="1169" math="0" shadow="0">
      <root>
        <mxCell id="0" />
        <mxCell id="1" parent="0" />
        <mxCell id="oz5PeP0d_qX-T1ShCsJo-3" value="" style="edgeStyle=orthogonalEdgeStyle;rounded=0;orthogonalLoop=1;jettySize=auto;html=1;" edge="1" parent="1" source="oz5PeP0d_qX-T1ShCsJo-1" target="oz5PeP0d_qX-T1ShCsJo-2">
          <mxGeometry relative="1" as="geometry" />
        </mxCell>
        <mxCell id="oz5PeP0d_qX-T1ShCsJo-1" value="Análisis del la infraestructura de las redes SDN y la vulnearbilidad de seguridad de los elementos que la conforman" style="rounded=1;whiteSpace=wrap;html=1;" vertex="1" parent="1">
          <mxGeometry x="80" y="180" width="190" height="90" as="geometry" />
        </mxCell>
        <mxCell id="oz5PeP0d_qX-T1ShCsJo-5" value="" style="edgeStyle=orthogonalEdgeStyle;rounded=0;orthogonalLoop=1;jettySize=auto;html=1;" edge="1" parent="1" source="oz5PeP0d_qX-T1ShCsJo-2" target="oz5PeP0d_qX-T1ShCsJo-4">
          <mxGeometry relative="1" as="geometry" />
        </mxCell>
        <mxCell id="oz5PeP0d_qX-T1ShCsJo-2" value="Implementación del entorno general de la red SDN/MPLS de servicios diferenciados" style="rounded=1;whiteSpace=wrap;html=1;" vertex="1" parent="1">
          <mxGeometry x="314" y="180" width="200" height="90" as="geometry" />
        </mxCell>
        <mxCell id="oz5PeP0d_qX-T1ShCsJo-7" style="edgeStyle=orthogonalEdgeStyle;rounded=0;orthogonalLoop=1;jettySize=auto;html=1;entryX=0.5;entryY=0;entryDx=0;entryDy=0;" edge="1" parent="1" source="oz5PeP0d_qX-T1ShCsJo-4" target="oz5PeP0d_qX-T1ShCsJo-6">
          <mxGeometry relative="1" as="geometry">
            <Array as="points">
              <mxPoint x="650" y="300" />
              <mxPoint x="180" y="300" />
            </Array>
          </mxGeometry>
        </mxCell>
        <mxCell id="oz5PeP0d_qX-T1ShCsJo-4" value="Planifiación y ejecución de los ataques DoS a la infraestructura de red del entorno general" style="rounded=1;whiteSpace=wrap;html=1;" vertex="1" parent="1">
          <mxGeometry x="550" y="180" width="200" height="90" as="geometry" />
        </mxCell>
        <mxCell id="oz5PeP0d_qX-T1ShCsJo-10" value="" style="edgeStyle=orthogonalEdgeStyle;rounded=0;orthogonalLoop=1;jettySize=auto;html=1;" edge="1" parent="1" source="oz5PeP0d_qX-T1ShCsJo-6" target="oz5PeP0d_qX-T1ShCsJo-8">
          <mxGeometry relative="1" as="geometry" />
        </mxCell>
        <mxCell id="oz5PeP0d_qX-T1ShCsJo-6" value="Análisis de repercusiones generadas por los ataques al enotorno SDN general y planteamiento del mecanismo de seguirdad" style="rounded=1;whiteSpace=wrap;html=1;" vertex="1" parent="1">
          <mxGeometry x="80" y="330" width="200" height="90" as="geometry" />
        </mxCell>
        <mxCell id="oz5PeP0d_qX-T1ShCsJo-11" value="" style="edgeStyle=orthogonalEdgeStyle;rounded=0;orthogonalLoop=1;jettySize=auto;html=1;" edge="1" parent="1" source="oz5PeP0d_qX-T1ShCsJo-8" target="oz5PeP0d_qX-T1ShCsJo-9">
          <mxGeometry relative="1" as="geometry" />
        </mxCell>
        <mxCell id="oz5PeP0d_qX-T1ShCsJo-8" value="Despliegue del mecanismo de seguridad en el entorno de ataques DoS" style="rounded=1;whiteSpace=wrap;html=1;" vertex="1" parent="1">
          <mxGeometry x="314" y="330" width="200" height="90" as="geometry" />
        </mxCell>
        <mxCell id="oz5PeP0d_qX-T1ShCsJo-9" value="Resultados y evaluación del rendmiento del mecanismo de seguridad en la red SDN" style="rounded=1;whiteSpace=wrap;html=1;" vertex="1" parent="1">
          <mxGeometry x="560" y="330" width="200" height="90" as="geometry" />
        </mxCell>
      </root>
    </mxGraphModel>
  </diagram>
</mxfile>
